<?xml version="1.0" ?><svg data-name="Layer 1" id="Layer_1" viewBox="0 0 140 140" xmlns="http://www.w3.org/2000/svg"><defs><style>.cls-1{fill:#d77165;}.cls-2{fill:#525354;}.cls-3{fill:#fff;}.cls-4{fill:#a4d5dc;}.cls-5{fill:#d7dadb;}</style></defs><title/><circle class="cls-1" cx="70" cy="70" r="64"/><path class="cls-2" d="M70,43.49c-25,0-45,22.74-48.48,26.87a1,1,0,0,0,0,1.28C25,75.77,45,98.51,70,98.51s45-22.74,48.48-26.87a1,1,0,0,0,0-1.28C115,66.23,95,43.49,70,43.49Z"/><path class="cls-3" d="M70,42.49c-25,0-45,22.74-48.48,26.87a1,1,0,0,0,0,1.28C25,74.77,45,97.51,70,97.51s45-22.74,48.48-26.87a1,1,0,0,0,0-1.28C115,65.23,95,42.49,70,42.49Z"/><circle class="cls-4" cx="70" cy="70" r="26.5"/><circle class="cls-2" cx="70" cy="70" r="13"/><circle class="cls-5" cx="76" cy="66" r="2"/></svg>